<?xml version="1.0" encoding="utf-8"?>
<!-- Generator: Adobe Illustrator 22.1.0, SVG Export Plug-In . SVG Version: 6.00 Build 0)  -->
<svg version="1.1" id="Laag_1" xmlns="http://www.w3.org/2000/svg" xmlns:xlink="http://www.w3.org/1999/xlink" x="0px" y="0px"
	 viewBox="0 0 841.9 595.3" style="enable-background:new 0 0 841.9 595.3;" xml:space="preserve">
<style type="text/css">
	.st0{fill:#9D0244;}
	.st1{fill:#FFFFFF;}
</style>
<g>
	<circle class="st0" cx="286" cy="298.6" r="70.9"/>
	<path class="st1" d="M286,279.2c-11.5,0-21.9,5.1-29,13.1c-1.6-3.5-2.5-7.4-2.7-11.5c-0.8-17.5,12.7-32.4,30.2-33.2
		c14.3-0.7,26.9,8.2,31.4,21.1l5.4-5.4c-6.4-14.1-20.9-23.5-37.2-22.7c-21.4,1-38,19.2-37,40.7c1,21.4,19.2,38,40.7,37
		c10.9-0.5,20.5-5.5,27.2-13c1.7,3.9,2.7,8.3,2.7,12.9c0,17.5-14.2,31.7-31.7,31.7c-13.8,0-25.6-8.8-29.9-21.2l-5.4,5.4
		c6.1,13.4,19.6,22.8,35.3,22.8c21.4,0,38.8-17.4,38.8-38.8C324.7,296.6,307.4,279.2,286,279.2z M287.5,311.1
		c-10.8,0.5-20.6-4.4-26.7-12.4c5.8-7.6,14.9-12.4,25.2-12.4c10.3,0,19.4,4.9,25.2,12.4C305.6,305.8,297.2,310.6,287.5,311.1z"/>
	<g>
		<path d="M407.5,318c1.9,6.7,7.2,10.5,13.8,10.5c8.5,0,13.6-5.2,13.6-14.2c0-8.3-4.9-11.4-12.8-15.6c-10.7-5.6-16.9-9.9-16.9-19.3
			c0-9.5,7.1-16.2,17.4-16.2c6.8,0,11.8,2.9,14.9,8.6l-4.7,2.8c-1.9-3.9-5.7-5.9-10.6-5.9c-6.7,0-10.8,4.2-10.8,10.8
			c0,8.2,6.1,10.1,14.9,14.9c9.9,5.4,14.4,9.7,14.4,19.9c0,12.1-7.5,19.7-19.7,19.7c-8.9,0-15.2-4.4-18.8-13.1L407.5,318z"/>
		<path d="M472,269H459l3.1-5.8h16.1v70.8H472V269z"/>
		<path d="M528.1,287.8c13.1,0,22,8.9,22,21.9c0,14.5-9.5,24.3-23.5,24.3c-9.9,0-16.8-4.4-21.5-13.3l5-3.7
			c4.1,7.7,9.1,11.3,16.8,11.3c10,0,16.7-7,16.7-18.2c0-10.2-6.6-16.8-17.2-16.8c-5.7,0-10.7,1.7-14.4,5.1l-1.9-0.2l8.9-34.9H547
			v5.8l-23.8,0l-5.4,21.2C521.3,288.7,524.6,287.8,528.1,287.8z"/>
		<path d="M575.8,263.2h6.4V292h38.5v-28.7h6.4v70.9h-6.4v-36.6h-38.5v36.6h-6.4V263.2z"/>
	</g>
</g>
</svg>
